<svg width="84" height="84" viewBox="0 0 84 84" fill="none" xmlns="http://www.w3.org/2000/svg">
<path fill-rule="evenodd" clip-rule="evenodd" d="M0 42C0 18.804 18.804 0 42 0C65.196 0 84 18.804 84 42C84 65.196 65.196 84 42 84C18.804 84 0 65.196 0 42ZM42 21C53.55 21 63 30.45 63 42C63 52.5 55.3875 61.425 44.8875 63V48.0375H49.875L50.925 42H45.15V38.0625C45.15 36.4875 45.9375 34.9125 48.5625 34.9125H51.1875V29.6625C51.1875 29.6625 48.825 29.1375 46.4625 29.1375C41.7375 29.1375 38.5875 32.025 38.5875 37.275V42H33.3375V48.0375H38.5875V62.7375C28.6125 61.1625 21 52.5 21 42C21 30.45 30.45 21 42 21Z" fill="#FF6835"/>
</svg>
