<svg width="84" height="84" viewBox="0 0 84 84" fill="none" xmlns="http://www.w3.org/2000/svg">
<path fill-rule="evenodd" clip-rule="evenodd" d="M42 0C65.196 0 84 18.804 84 42C84 65.196 65.196 84 42 84C18.804 84 0 65.196 0 42C0 18.804 18.804 0 42 0ZM50.4204 32.4928C48.2441 30.4118 45.4759 29.3523 42.3927 29.3523C36.9231 29.3523 32.2944 33.0462 30.6431 38.0099C30.2231 39.2699 29.9844 40.6158 29.9844 41.9999C29.9844 43.384 30.2222 44.7299 30.6422 45.9899C32.2936 50.9535 36.9231 54.6476 42.3927 54.6476C45.2181 54.6476 47.6244 53.9033 49.5049 52.6433C51.729 51.1542 53.2085 48.9301 53.6953 46.3051H42.3935V38.1819H62.1717C62.4199 39.5564 62.5535 40.9882 62.5535 42.4773C62.5535 48.8728 60.2626 54.2564 56.2917 57.9124C52.8172 61.1196 48.0627 62.9999 42.3927 62.9999C34.1836 62.9999 27.0817 58.294 23.6263 51.4308C22.204 48.5958 21.3935 45.3885 21.3935 41.9999C21.3935 38.6113 22.2049 35.404 23.6271 32.569C27.0826 25.7058 34.1836 21 42.3927 21C48.0531 21 52.8068 23.0809 56.4436 26.4696L50.4204 32.4928Z" fill="#FF6835"/>
</svg>
