<svg width="83" height="84" viewBox="0 0 83 84" fill="none" xmlns="http://www.w3.org/2000/svg">
<path d="M41.5 49.35C37.6094 49.35 34.2375 46.2 34.2375 42C34.2375 38.0625 37.35 34.65 41.5 34.65C45.3906 34.65 48.7625 37.8 48.7625 42C48.7625 45.9375 45.3906 49.35 41.5 49.35Z" fill="#FF6835"/>
<path fill-rule="evenodd" clip-rule="evenodd" d="M50.3187 24.15H32.6813C30.6063 24.4125 29.5688 24.675 28.7906 24.9375C27.7531 25.2 26.975 25.725 26.1969 26.5125C25.5812 27.1356 25.2902 27.7588 24.9386 28.512C24.8459 28.7105 24.7488 28.9185 24.6406 29.1375C24.6005 29.2593 24.5542 29.3874 24.5045 29.5247C24.2332 30.275 23.8625 31.2999 23.8625 33.075V50.925C24.1219 53.025 24.3812 54.075 24.6406 54.8625C24.9 55.9125 25.4188 56.7 26.1969 57.4875C26.8126 58.1106 27.4283 58.4051 28.1726 58.7609C28.3689 58.8548 28.5741 58.9529 28.7906 59.0625C28.911 59.1031 29.0376 59.15 29.1733 59.2002C29.9146 59.4749 30.9272 59.85 32.6813 59.85H50.3187C52.3937 59.5875 53.4313 59.325 54.2094 59.0625C55.2469 58.8 56.025 58.275 56.8031 57.4875C57.4188 56.8644 57.7098 56.2412 58.0614 55.488C58.1541 55.2894 58.2511 55.0816 58.3594 54.8625C58.3995 54.7407 58.4458 54.6126 58.4955 54.4753C58.7668 53.725 59.1375 52.7001 59.1375 50.925V33.075C58.8781 30.975 58.6188 29.925 58.3594 29.1375C58.1 28.0875 57.5812 27.3 56.8031 26.5125C56.1874 25.8894 55.5717 25.5949 54.8275 25.2391C54.6315 25.1453 54.4255 25.0469 54.2094 24.9375C54.089 24.8969 53.9624 24.85 53.8267 24.7997C53.0854 24.5251 52.0727 24.15 50.3187 24.15ZM41.5 30.7125C35.275 30.7125 30.3469 35.7 30.3469 42C30.3469 48.3 35.275 53.2875 41.5 53.2875C47.725 53.2875 52.6531 48.3 52.6531 42C52.6531 35.7 47.725 30.7125 41.5 30.7125ZM55.5062 30.45C55.5062 31.8997 54.345 33.075 52.9125 33.075C51.48 33.075 50.3187 31.8997 50.3187 30.45C50.3187 29.0002 51.48 27.825 52.9125 27.825C54.345 27.825 55.5062 29.0002 55.5062 30.45Z" fill="#FF6835"/>
<path fill-rule="evenodd" clip-rule="evenodd" d="M0 42C0 18.804 18.5802 0 41.5 0C64.4198 0 83 18.804 83 42C83 65.196 64.4198 84 41.5 84C18.5802 84 0 65.196 0 42ZM32.6813 20.2125H50.3187C52.6531 20.475 54.2094 20.7375 55.5062 21.2625C57.0625 22.05 58.1 22.575 59.3969 23.8875C60.6937 25.2 61.4719 26.5125 61.9906 27.825C62.5094 29.1375 63.0281 30.7125 63.0281 33.075V50.925C62.7687 53.2875 62.5094 54.8625 61.9906 56.175C61.2125 57.75 60.6937 58.8 59.3969 60.1125C58.1 61.425 56.8031 62.2125 55.5062 62.7375C54.2094 63.2625 52.6531 63.7875 50.3187 63.7875H32.6813C30.3469 63.525 28.7906 63.2625 27.4938 62.7375C25.9375 61.95 24.9 61.425 23.6031 60.1125C22.3063 58.8 21.5281 57.4875 21.0094 56.175C20.4906 54.8625 19.9719 53.2875 19.9719 50.925V33.075C20.2312 30.7125 20.4906 29.1375 21.0094 27.825C21.7875 26.25 22.3063 25.2 23.6031 23.8875C24.9 22.575 26.1969 21.7875 27.4938 21.2625C28.7906 20.7375 30.3469 20.2125 32.6813 20.2125Z" fill="#FF6835"/>
</svg>
