<svg width="84" height="84" viewBox="0 0 84 84" fill="none" xmlns="http://www.w3.org/2000/svg">
<circle cx="42" cy="42" r="42" fill="#FF6835"/>
<path d="M67.375 38.7305C67.375 27.0412 55.9923 17.5313 41.9998 17.5313C28.0092 17.5313 16.625 27.0412 16.625 38.7305C16.625 49.2099 25.6524 57.9862 37.8465 59.6458C38.673 59.8291 39.7976 60.2067 40.0822 60.9338C40.3381 61.5944 40.2495 62.629 40.1639 63.296C40.1639 63.296 39.8662 65.1394 39.802 65.532C39.6916 66.1926 39.2922 68.1151 41.9998 66.9402C44.7083 65.7654 56.6134 58.0818 61.9371 51.7735C65.6146 47.6219 67.375 43.4088 67.375 38.7305Z" fill="white"/>
<path d="M36.8442 33.0638H35.0643C34.7914 33.0638 34.5696 33.2914 34.5696 33.571V44.9406C34.5696 45.2207 34.7914 45.4478 35.0643 45.4478H36.8442C37.1171 45.4478 37.3384 45.2207 37.3384 44.9406V33.571C37.3384 33.2914 37.1171 33.0638 36.8442 33.0638Z" fill="#FF6835"/>
<path d="M49.0951 33.0638H47.3153C47.0424 33.0638 46.821 33.2914 46.821 33.571V40.3257L41.7542 33.2894C41.6605 33.1449 41.5085 33.0733 41.3427 33.0638H39.5633C39.2904 33.0638 39.0686 33.2914 39.0686 33.571V44.9406C39.0686 45.2207 39.2904 45.4478 39.5633 45.4478H41.3427C41.6161 45.4478 41.8374 45.2207 41.8374 44.9406V38.1878L46.9105 45.2332C47.0016 45.3659 47.1563 45.4478 47.3153 45.4478H49.0951C49.3685 45.4478 49.5894 45.2207 49.5894 44.9406V33.571C49.5894 33.2914 49.3685 33.0638 49.0951 33.0638Z" fill="#FF6835"/>
<path d="M32.5538 42.6006H27.7176V33.5715C27.7176 33.2909 27.4962 33.0633 27.2238 33.0633H25.4434C25.1706 33.0633 24.9492 33.2909 24.9492 33.5715V44.939C24.9492 45.215 25.1696 45.4478 25.443 45.4478H32.5538C32.8267 45.4478 33.047 45.2197 33.047 44.939V43.1088C33.047 42.8282 32.8267 42.6006 32.5538 42.6006Z" fill="#FF6835"/>
<path d="M58.9244 35.9104C59.1973 35.9104 59.4176 35.6833 59.4176 35.4022V33.572C59.4176 33.2914 59.1973 33.0633 58.9244 33.0633H51.814C51.541 33.0633 51.3198 33.2956 51.3198 33.5715V44.9396C51.3198 45.2147 51.5404 45.4478 51.8131 45.4478H58.9244C59.1973 45.4478 59.4176 45.2197 59.4176 44.9396V43.1088C59.4176 42.8287 59.1973 42.6006 58.9244 42.6006H54.0886V40.6788H58.9244C59.1973 40.6788 59.4176 40.4512 59.4176 40.1706V38.3404C59.4176 38.0598 59.1973 37.8317 58.9244 37.8317H54.0886V35.9104H58.9244Z" fill="#FF6835"/>
</svg>
