<svg width="52" height="51" viewBox="0 0 52 51" fill="none" xmlns="http://www.w3.org/2000/svg">
<path d="M51.375 21.7305C51.375 10.0412 39.9923 0.531259 25.9998 0.531259C12.0092 0.531259 0.625 10.0412 0.625 21.7305C0.625 32.2099 9.65239 40.9862 21.8465 42.6458C22.673 42.8291 23.7976 43.2067 24.0822 43.9338C24.3381 44.5944 24.2495 45.629 24.1639 46.296C24.1639 46.296 23.8662 48.1394 23.802 48.532C23.6916 49.1926 23.2922 51.1151 25.9998 49.9402C28.7083 48.7654 40.6134 41.0818 45.9371 34.7735C49.6146 30.6219 51.375 26.4088 51.375 21.7305Z" fill="white"/>
<path d="M20.8442 16.0638H19.0643C18.7914 16.0638 18.5696 16.2914 18.5696 16.571V27.9406C18.5696 28.2207 18.7914 28.4478 19.0643 28.4478H20.8442C21.1171 28.4478 21.3384 28.2207 21.3384 27.9406V16.571C21.3384 16.2914 21.1171 16.0638 20.8442 16.0638Z" fill="#FF6835"/>
<path d="M33.0951 16.0638H31.3153C31.0424 16.0638 30.821 16.2914 30.821 16.571V23.3257L25.7542 16.2894C25.6605 16.1449 25.5085 16.0733 25.3427 16.0638H23.5633C23.2904 16.0638 23.0686 16.2914 23.0686 16.571V27.9406C23.0686 28.2207 23.2904 28.4478 23.5633 28.4478H25.3427C25.6161 28.4478 25.8374 28.2207 25.8374 27.9406V21.1878L30.9105 28.2332C31.0016 28.3659 31.1563 28.4478 31.3153 28.4478H33.0951C33.3685 28.4478 33.5894 28.2207 33.5894 27.9406V16.571C33.5894 16.2914 33.3685 16.0638 33.0951 16.0638Z" fill="#FF6835"/>
<path d="M16.5538 25.6006H11.7176V16.5715C11.7176 16.2909 11.4962 16.0633 11.2238 16.0633H9.44344C9.17055 16.0633 8.94922 16.2909 8.94922 16.5715V27.939C8.94922 28.215 9.16957 28.4478 9.44296 28.4478H16.5538C16.8267 28.4478 17.047 28.2197 17.047 27.939V26.1088C17.047 25.8282 16.8267 25.6006 16.5538 25.6006Z" fill="#FF6835"/>
<path d="M42.9244 18.9104C43.1973 18.9104 43.4176 18.6833 43.4176 18.4022V16.572C43.4176 16.2914 43.1973 16.0633 42.9244 16.0633H35.814C35.541 16.0633 35.3198 16.2956 35.3198 16.5715V27.9396C35.3198 28.2147 35.5404 28.4478 35.8131 28.4478H42.9244C43.1973 28.4478 43.4176 28.2197 43.4176 27.9396V26.1088C43.4176 25.8287 43.1973 25.6006 42.9244 25.6006H38.0886V23.6788H42.9244C43.1973 23.6788 43.4176 23.4512 43.4176 23.1706V21.3404C43.4176 21.0598 43.1973 20.8317 42.9244 20.8317H38.0886V18.9104H42.9244Z" fill="#FF6835"/>
</svg>
