<svg width="84" height="84" viewBox="0 0 84 84" fill="none" xmlns="http://www.w3.org/2000/svg">
<path fill-rule="evenodd" clip-rule="evenodd" d="M0 42C0 18.804 18.804 0 42 0C65.196 0 84 18.804 84 42C84 65.196 65.196 84 42 84C18.804 84 0 65.196 0 42ZM21.525 34.9125V63H30.45V34.9125H21.525ZM21 25.9875C21 28.875 23.1 30.975 25.9875 30.975C28.875 30.975 30.975 28.875 30.975 25.9875C30.975 23.1 28.875 21 25.9875 21C23.3625 21 21 23.1 21 25.9875ZM54.075 63H62.475V45.675C62.475 37.0125 57.225 34.125 52.2375 34.125C47.775 34.125 44.625 37.0125 43.8375 38.85V34.9125H35.4375V63H44.3625V48.0375C44.3625 44.1 46.9875 42 49.6125 42C52.2375 42 54.075 43.3125 54.075 47.775V63Z" fill="#FF6835"/>
</svg>
