<svg width="84" height="84" viewBox="0 0 84 84" fill="none" xmlns="http://www.w3.org/2000/svg">
<path fill-rule="evenodd" clip-rule="evenodd" d="M42 0C18.8041 0 0 18.804 0 42C0 65.196 18.8041 84 42 84C65.1959 84 84 65.196 84 42C84 18.804 65.1959 0 42 0ZM50.1853 21C50.1853 21.6241 50.2437 22.2387 50.351 22.8336C50.8675 25.5834 52.4949 27.9432 54.7554 29.4156C56.3338 30.4493 58.2045 31.0441 60.2214 31.0441L60.221 32.6531V38.2602C56.4795 38.2602 53.0109 37.0608 50.1852 35.0324V49.7086C50.1852 57.032 44.2224 63 36.9052 63C34.0796 63 31.4487 62.1026 29.2954 60.5912C25.8659 58.1825 23.625 54.2039 23.625 49.7086C23.625 42.3754 29.5782 36.4173 36.8954 36.4269C37.5093 36.4269 38.1036 36.4757 38.6882 36.5538V38.2602L38.6668 38.2704L38.6881 38.2699V43.9259C38.1231 43.7503 37.519 43.6431 36.8954 43.6431C33.5534 43.6431 30.835 46.3638 30.835 49.7086C30.835 52.0393 32.1601 54.0578 34.0893 55.0817C34.1073 55.1064 34.1256 55.1309 34.1439 55.1553L34.1763 55.1979C34.1541 55.1551 34.1284 55.1131 34.0991 55.0719C34.9468 55.5205 35.9016 55.774 36.9149 55.774C40.1788 55.774 42.8487 53.1704 42.9655 49.9329L42.9752 21H50.1853Z" fill="#FF6835"/>
</svg>
