<svg width="84" height="84" viewBox="0 0 84 84" fill="none" xmlns="http://www.w3.org/2000/svg">
<path fill-rule="evenodd" clip-rule="evenodd" d="M0 42C0 18.804 18.804 0 42 0C65.196 0 84 18.804 84 42C84 65.196 65.196 84 42 84C18.804 84 0 65.196 0 42ZM58.0125 30.1875C59.85 29.925 61.425 29.6625 63 28.875C61.95 30.7125 60.375 32.2875 58.5375 33.3375C59.0625 45.675 50.1375 59.0625 34.125 59.0625C29.4 59.0625 24.9375 57.4875 21 55.125C25.4625 55.65 30.1875 54.3375 33.3375 51.975C29.4 51.975 26.25 49.35 25.2 45.9375C26.5125 46.2 27.825 45.9375 29.1375 45.675C25.2 44.625 22.3125 40.95 22.3125 37.0125C23.625 37.5375 24.9375 38.0625 26.25 38.0625C22.575 35.4375 21.2625 30.45 23.625 26.5125C28.0875 31.7625 34.3875 35.175 41.475 35.4375C40.1625 30.1875 44.3625 24.9375 49.875 24.9375C52.2375 24.9375 54.6 25.9875 56.175 27.5625C58.275 27.0375 60.1125 26.5125 61.6875 25.4625C61.1625 27.5625 59.85 29.1375 58.0125 30.1875Z" fill="#FF6835"/>
</svg>
