<svg width="84" height="84" viewBox="0 0 84 84" fill="none" xmlns="http://www.w3.org/2000/svg">
<path d="M48.825 42L37.8 35.7V48.3L48.825 42Z" fill="#FF6835"/>
<path fill-rule="evenodd" clip-rule="evenodd" d="M0 42C0 18.804 18.804 0 42 0C65.196 0 84 18.804 84 42C84 65.196 65.196 84 42 84C18.804 84 0 65.196 0 42ZM58.275 28.0875C60.1125 28.6125 61.425 29.925 61.95 31.7625C63 35.175 63 42 63 42C63 42 63 48.825 62.2125 52.2375C61.6875 54.075 60.375 55.3875 58.5375 55.9125C55.125 56.7 42 56.7 42 56.7C42 56.7 28.6125 56.7 25.4625 55.9125C23.625 55.3875 22.3125 54.075 21.7875 52.2375C21 48.825 21 42 21 42C21 42 21 35.175 21.525 31.7625C22.05 29.925 23.3625 28.6125 25.2 28.0875C28.6125 27.3 41.7375 27.3 41.7375 27.3C41.7375 27.3 55.125 27.3 58.275 28.0875Z" fill="#FF6835"/>
</svg>
